<svg width="175" height="23" viewBox="0 0 175 23" fill="none" xmlns="http://www.w3.org/2000/svg">
<path d="M45.1069 2.51357V5.29821H37.8955V9.70928H43.4218V12.4446H37.8955V19.7143H34.4261V2.51357H45.1069Z" fill="#463AB0"/>
<path d="M53.6634 19.9361C52.3417 19.9361 51.1522 19.6486 50.0948 19.0736C49.0375 18.4821 48.2032 17.6525 47.5919 16.5846C46.9971 15.5168 46.6997 14.2846 46.6997 12.8882C46.6997 11.4918 47.0054 10.2596 47.6167 9.19178C48.2445 8.12393 49.0953 7.3025 50.1692 6.7275C51.243 6.13607 52.4408 5.84036 53.7625 5.84036C55.0842 5.84036 56.282 6.13607 57.3559 6.7275C58.4297 7.3025 59.2723 8.12393 59.8836 9.19178C60.5114 10.2596 60.8253 11.4918 60.8253 12.8882C60.8253 14.2846 60.5031 15.5168 59.8588 16.5846C59.231 17.6525 58.3719 18.4821 57.2815 19.0736C56.2076 19.6486 55.0016 19.9361 53.6634 19.9361ZM53.6634 16.9296C54.2912 16.9296 54.8777 16.7818 55.4229 16.4861C55.9846 16.1739 56.4307 15.7139 56.7611 15.1061C57.0915 14.4982 57.2567 13.7589 57.2567 12.8882C57.2567 11.5904 56.9098 10.5964 56.2159 9.90643C55.5385 9.2 54.7042 8.84678 53.7129 8.84678C52.7217 8.84678 51.8874 9.2 51.21 9.90643C50.5492 10.5964 50.2187 11.5904 50.2187 12.8882C50.2187 14.1861 50.5409 15.1882 51.1852 15.8946C51.8461 16.5846 52.6721 16.9296 53.6634 16.9296Z" fill="#463AB0"/>
<path d="M66.8397 8.18143C67.2857 7.45857 67.864 6.89178 68.5744 6.48107C69.3013 6.07036 70.1274 5.865 71.0525 5.865V9.4875H70.1356C69.0452 9.4875 68.2192 9.74214 67.6575 10.2514C67.1123 10.7607 66.8397 11.6479 66.8397 12.9129V19.7143H63.3702V6.06214H66.8397V8.18143Z" fill="#463AB0"/>
<path d="M90.4391 5.865C92.1243 5.865 93.479 6.3825 94.5033 7.4175C95.5442 8.43607 96.0646 9.86536 96.0646 11.7054V19.7143H92.5951V12.1736C92.5951 11.1057 92.3225 10.2925 91.7774 9.73393C91.2322 9.15893 90.4887 8.87143 89.547 8.87143C88.6053 8.87143 87.8536 9.15893 87.2919 9.73393C86.7467 10.2925 86.4741 11.1057 86.4741 12.1736V19.7143H83.0047V12.1736C83.0047 11.1057 82.7321 10.2925 82.1869 9.73393C81.6417 9.15893 80.8982 8.87143 79.9565 8.87143C78.9983 8.87143 78.2383 9.15893 77.6766 9.73393C77.1314 10.2925 76.8588 11.1057 76.8588 12.1736V19.7143H73.3894V6.06214H76.8588V7.71321C77.3049 7.13821 77.8749 6.68643 78.5687 6.35785C79.2791 6.02928 80.0556 5.865 80.8982 5.865C81.9721 5.865 82.9303 6.095 83.7729 6.555C84.6155 6.99857 85.268 7.63928 85.7306 8.47714C86.1767 7.68857 86.821 7.05607 87.6636 6.57964C88.5227 6.10321 89.4479 5.865 90.4391 5.865Z" fill="#463AB0"/>
<path d="M110.038 2.51357V5.29821H102.826V9.70928H108.353V12.4446H102.826V19.7143H99.3569V2.51357H110.038Z" fill="#463AB0"/>
<path d="M115.967 8.18143C116.413 7.45857 116.992 6.89178 117.702 6.48107C118.429 6.07036 119.255 5.865 120.18 5.865V9.4875H119.263C118.173 9.4875 117.347 9.74214 116.785 10.2514C116.24 10.7607 115.967 11.6479 115.967 12.9129V19.7143H112.498V6.06214H115.967V8.18143Z" fill="#463AB0"/>
<path d="M124.277 4.43571C123.665 4.43571 123.153 4.24678 122.74 3.86893C122.344 3.47464 122.145 2.99 122.145 2.415C122.145 1.84 122.344 1.36357 122.74 0.985713C123.153 0.591427 123.665 0.394285 124.277 0.394285C124.888 0.394285 125.392 0.591427 125.788 0.985713C126.201 1.36357 126.408 1.84 126.408 2.415C126.408 2.99 126.201 3.47464 125.788 3.86893C125.392 4.24678 124.888 4.43571 124.277 4.43571ZM125.986 6.06214V19.7143H122.517V6.06214H125.986Z" fill="#463AB0"/>
<path d="M142.177 12.5925C142.177 13.0854 142.144 13.5289 142.078 13.9232H132.041C132.124 14.9089 132.471 15.6811 133.082 16.2396C133.693 16.7982 134.445 17.0775 135.337 17.0775C136.626 17.0775 137.543 16.5271 138.088 15.4264H141.83C141.433 16.7407 140.673 17.825 139.55 18.6793C138.427 19.5171 137.047 19.9361 135.411 19.9361C134.09 19.9361 132.9 19.6486 131.843 19.0736C130.802 18.4821 129.984 17.6525 129.389 16.5846C128.811 15.5168 128.522 14.2846 128.522 12.8882C128.522 11.4754 128.811 10.235 129.389 9.16714C129.968 8.09928 130.777 7.27786 131.818 6.70286C132.859 6.12786 134.057 5.84036 135.411 5.84036C136.717 5.84036 137.881 6.11964 138.906 6.67821C139.946 7.23678 140.748 8.03357 141.309 9.06857C141.888 10.0871 142.177 11.2618 142.177 12.5925ZM138.583 11.6068C138.567 10.7196 138.245 10.0132 137.617 9.4875C136.989 8.94536 136.221 8.67428 135.312 8.67428C134.453 8.67428 133.726 8.93714 133.132 9.46286C132.553 9.97214 132.198 10.6868 132.066 11.6068H138.583Z" fill="#463AB0"/>
<path d="M152.317 5.865C153.953 5.865 155.274 6.3825 156.282 7.4175C157.29 8.43607 157.794 9.86536 157.794 11.7054V19.7143H154.324V12.1736C154.324 11.0893 154.052 10.2596 153.507 9.68464C152.961 9.09321 152.218 8.7975 151.276 8.7975C150.318 8.7975 149.558 9.09321 148.996 9.68464C148.451 10.2596 148.179 11.0893 148.179 12.1736V19.7143H144.709V6.06214H148.179V7.7625C148.641 7.17107 149.228 6.71107 149.938 6.3825C150.665 6.0375 151.458 5.865 152.317 5.865Z" fill="#463AB0"/>
<path d="M160.201 12.8389C160.201 11.4589 160.474 10.235 161.019 9.16714C161.581 8.09928 162.34 7.27786 163.299 6.70286C164.257 6.12786 165.323 5.84036 166.496 5.84036C167.388 5.84036 168.239 6.0375 169.048 6.43178C169.858 6.80964 170.502 7.31893 170.981 7.95964V1.47857H174.5V19.7143H170.981V17.6936C170.551 18.3671 169.948 18.9093 169.172 19.32C168.395 19.7307 167.495 19.9361 166.471 19.9361C165.314 19.9361 164.257 19.6404 163.299 19.0489C162.34 18.4575 161.581 17.6279 161.019 16.56C160.474 15.4757 160.201 14.2354 160.201 12.8389ZM171.006 12.8882C171.006 12.0504 170.841 11.3357 170.51 10.7443C170.18 10.1364 169.734 9.67643 169.172 9.36428C168.61 9.03571 168.007 8.87143 167.363 8.87143C166.719 8.87143 166.124 9.0275 165.579 9.33964C165.033 9.65178 164.587 10.1118 164.24 10.7196C163.91 11.3111 163.745 12.0175 163.745 12.8389C163.745 13.6604 163.91 14.3832 164.24 15.0075C164.587 15.6154 165.033 16.0836 165.579 16.4121C166.14 16.7407 166.735 16.905 167.363 16.905C168.007 16.905 168.61 16.7489 169.172 16.4368C169.734 16.1082 170.18 15.6482 170.51 15.0568C170.841 14.4489 171.006 13.7261 171.006 12.8882Z" fill="#463AB0"/>
<path d="M4.63027 4.92857C4.41119 4.92857 4.20108 5.01511 4.04616 5.16916C3.89125 5.32321 3.80422 5.53214 3.80422 5.75C3.80422 5.96786 3.89125 6.17679 4.04616 6.33084C4.20108 6.48488 4.41119 6.57143 4.63027 6.57143H16.195C16.4141 6.57143 16.6242 6.48488 16.7791 6.33084C16.9341 6.17679 17.0211 5.96786 17.0211 5.75C17.0211 5.53214 16.9341 5.32321 16.7791 5.16916C16.6242 5.01511 16.4141 4.92857 16.195 4.92857H4.63027ZM6.28238 14.7857C6.93963 14.7857 7.56996 14.5261 8.03471 14.0639C8.49945 13.6018 8.76055 12.975 8.76055 12.3214C8.76055 11.6679 8.49945 11.0411 8.03471 10.5789C7.56996 10.1168 6.93963 9.85714 6.28238 9.85714C5.62513 9.85714 4.9948 10.1168 4.53006 10.5789C4.06531 11.0411 3.80422 11.6679 3.80422 12.3214C3.80422 12.975 4.06531 13.6018 4.53006 14.0639C4.9948 14.5261 5.62513 14.7857 6.28238 14.7857ZM6.28238 13.1429C6.0633 13.1429 5.85319 13.0563 5.69827 12.9023C5.54336 12.7482 5.45633 12.5393 5.45633 12.3214C5.45633 12.1036 5.54336 11.8946 5.69827 11.7406C5.85319 11.5865 6.0633 11.5 6.28238 11.5C6.50147 11.5 6.71158 11.5865 6.86649 11.7406C7.02141 11.8946 7.10844 12.1036 7.10844 12.3214C7.10844 12.5393 7.02141 12.7482 6.86649 12.9023C6.71158 13.0563 6.50147 13.1429 6.28238 13.1429ZM11.2387 11.5C11.0196 11.5 10.8095 11.5865 10.6546 11.7406C10.4997 11.8946 10.4127 12.1036 10.4127 12.3214C10.4127 12.5393 10.4997 12.7482 10.6546 12.9023C10.8095 13.0563 11.0196 13.1429 11.2387 13.1429H16.195C16.4141 13.1429 16.6242 13.0563 16.7791 12.9023C16.9341 12.7482 17.0211 12.5393 17.0211 12.3214C17.0211 12.1036 16.9341 11.8946 16.7791 11.7406C16.6242 11.5865 16.4141 11.5 16.195 11.5H11.2387Z" fill="#463AB0"/>
<path d="M0.5 4.92857C0.5 3.62143 1.02218 2.36783 1.95167 1.44355C2.88117 0.519259 4.14183 0 5.45633 0H15.369C16.6835 0 17.9441 0.519259 18.8736 1.44355C19.8031 2.36783 20.3253 3.62143 20.3253 4.92857V14.7857C20.3253 16.0929 19.8031 17.3465 18.8736 18.2707C17.9441 19.195 16.6835 19.7143 15.369 19.7143H5.45633C4.14183 19.7143 2.88117 19.195 1.95167 18.2707C1.02218 17.3465 0.5 16.0929 0.5 14.7857V4.92857ZM5.45633 1.64286C4.57999 1.64286 3.73955 1.98903 3.11989 2.60522C2.50023 3.22141 2.15211 4.05715 2.15211 4.92857V14.7857C2.15037 15.3577 2.29959 15.9202 2.58486 16.4169C2.87013 16.9136 3.28147 17.3272 3.77778 17.6164C4.27011 17.9071 4.8434 18.0714 5.45633 18.0714H15.369C15.9442 18.073 16.5097 17.9245 17.0092 17.6409C17.5087 17.3572 17.9246 16.9483 18.2156 16.4549C18.508 15.9653 18.6732 15.3952 18.6732 14.7857V4.92857C18.6732 4.05715 18.3251 3.22141 17.7054 2.60522C17.0858 1.98903 16.2453 1.64286 15.369 1.64286H5.45633Z" fill="#463AB0"/>
<path d="M8.76055 23C8.06309 23.0008 7.37336 22.8548 6.73668 22.5717C6.1 22.2886 5.53078 21.8746 5.06643 21.3571H16.195C17.7286 21.3571 19.1994 20.7513 20.2838 19.673C21.3682 18.5947 21.9774 17.1321 21.9774 15.6071V4.54086C22.9918 5.44443 23.6295 6.75543 23.6295 8.21428V15.6071C23.6295 17.5678 22.8463 19.4483 21.452 20.8347C20.0578 22.2211 18.1668 23 16.195 23H8.76055Z" fill="#463AB0"/>
</svg>
